General                          : ChattChitto RG - Movies [R2L]
==========
Complete name                    : Despicable Me 2010 BDRip H264 AAC [ChattChitto RG]
Format                           : MPEG-4
Format profile                   : Base Media
Codec ID                         : isom
File size                        : 1.63 GiB
Duration                         : 1h 34mn
Overall bit rate                 : 2 456 Kbps
Encoded date                     : UTC 2011-01-10 00:26:17

Video
==========
ID                               : 1
Format                           : AVC
Format/Info                      : Advanced Video Codec
Format profile                   : High@L4.0
Format settings, CABAC           : Yes
Format settings, ReFrames        : 4 frames
Codec ID                         : avc1
Codec ID/Info                    : Advanced Video Coding
Duration                         : 1h 34mn
Bit rate mode                    : Variable
Bit rate                         : 2 100 Kbps
Maximum bit rate                 : 21.0 Mbps
Width                            : 1 280 pixels
Height                           : 688 pixels
Display aspect ratio             : 1.860
Frame rate mode                  : Constant
Frame rate                       : 23.976 fps
Resolution                       : 24 bits
Colorimetry                      : 4:2:0
Scan type                        : Progressive
Bits/(Pixel*Frame)               : 0.099
Stream size                      : 1.39 GiB (85%)
Writing library                  : x264 core 84 r1400M 20fa784
Encoded date                     : UTC 2011-01-09 23:34:57

Audio
==========
ID                               : 2
Format                           : AAC
Format/Info                      : Advanced Audio Codec
Format version                   : Version 4
Format profile                   : LC
Format settings, SBR             : No
Codec ID                         : 40
Duration                         : 1h 34mn
Bit rate mode                    : Variable
Bit rate                         : 352.8 Kbps
Maximum bit rate                 : 426 Kbps
Channel(s)                       : 6 channels
Channel positions                : Front: L C R, Rear: L R, LFE
Sampling rate                    : 48.0 KHz
Resolution                       : 16 bits
Stream size                      : 240 MiB (14%)
Encoded date                     : UTC 2011-01-10 00:26:58

Subtitles                        : English | French | Spanish


----------------------------------------------------
IMDB Link: http://www.imdb.com/title/tt1323594/
----------------------------------------------------



Screen Shots:
==============    
http://bayimg.com/aaDHBAAdd 
http://bayimg.com/AadHcaaDD 
http://bayimg.com/aADhEaAdd 
http://bayimg.com/aaDHFAadd 
http://bayimg.com/AadhkAaDD



ScreenShots Comparison:
=========================  
http://screenshotcomparison.com/comparison/18843



Plot:
======
When a criminal mastermind uses a trio of orphan girls as pawns for a grand scheme, he finds himself profoundly changed by the growing love between them. 



Release Info:
==============
original name .... : Despicable Me 2010 BDRip H264 AAC [ChattChitto RG]
ripper.............: Recalled2Life (R2L)
encoder............: Recalled2Life (R2L)
video codec........: H264/.MP4                   
video bitrate......: 2100 Kbps                           
audio codec........: AAC-LC
aspect ratio.......: 1.860
resolution.........: 1280 x 688
genre..............: Animation | Comedy | Family         
runtime............: 1h 34mn
language...........: English
rating.............: PG 
subtitles..........: English | French | Spanish
sample.............: Yes [23.2 MB]
2ch Audio..........: 2ch Audio for XBox Viewers  
Compatibility .....: XBox 360 | PS3 | WD Live 



Source:
========
Despicable Me 2010 Blu-Ray m2ts - R2L [18.0 GB]



Notes:
=======
ChattChitto RG Encourages Burning this Film with ConvertXtoDVD.
XBox 360 | PS3 | WD Live - Compatible
Enhanced and Filtered for your viewing pleasure ;)